<svg xmlns="http://www.w3.org/2000/svg" viewBox="0 0 100 100">
  <path d="M 66.4 10.0 L 62.1 10.2 L 57.4 14.1 L 54.4 18.7 L 50.4 29.7 L 44.2 21.2 L 38.6 15.9 L 34.9 14.1 L 30.2 14.7 L 27.2 17.5 L 27.2 22.9 L 30.2 29.2 L 35.4 35.2 L 24.4 33.1 L 15.3 32.8 L 10.4 34.2 L 7.3 37.7 L 7.4 42.3 L 11.7 45.9 L 18.4 48.2 L 29.8 49.1 L 14.4 60.1 L 11.4 64.3 L 10.9 69.0 L 14.1 73.0 L 20.5 72.9 L 27.1 69.9 L 35.2 63.2 L 33.0 73.2 L 32.5 81.8 L 34.1 87.0 L 37.9 90.1 L 42.6 89.8 L 46.1 86.0 L 48.8 79.0 L 49.5 69.1 L 54.0 79.9 L 59.0 86.8 L 64.2 89.2 L 69.5 87.2 L 70.9 83.7 L 70.4 77.2 L 62.8 62.2 L 73.5 68.3 L 80.8 70.7 L 85.9 70.3 L 89.8 66.5 L 89.4 62.4 L 85.1 57.1 L 70.8 49.7 L 82.9 46.7 L 89.9 43.5 L 93.5 39.3 L 93.5 34.7 L 89.6 31.5 L 82.6 30.9 L 64.2 36.3 L 68.8 26.4 L 70.9 18.5 L 69.9 13.0 Z" fill="#E5511E"/>
</svg>
